<?xml version="1.0" encoding="UTF-8" standalone="no"?>
<!-- Created with Inkscape (http://www.inkscape.org/) -->

<svg
   xmlns:dc="http://purl.org/dc/elements/1.1/"
   xmlns:cc="http://creativecommons.org/ns#"
   xmlns:rdf="http://www.w3.org/1999/02/22-rdf-syntax-ns#"
   xmlns:svg="http://www.w3.org/2000/svg"
   xmlns="http://www.w3.org/2000/svg"
   xmlns:sodipodi="http://sodipodi.sourceforge.net/DTD/sodipodi-0.dtd"
   xmlns:inkscape="http://www.inkscape.org/namespaces/inkscape"
   id="svg2"
   version="1.1"
   inkscape:version="0.48.2 r9819"
   width="27.5"
   height="27.5"
   xml:space="preserve"
   sodipodi:docname="dizmoIcon-homeautomation-dark.ai"><metadata
     id="metadata8"><rdf:RDF><cc:Work
         rdf:about=""><dc:format>image/svg+xml</dc:format><dc:type
           rdf:resource="http://purl.org/dc/dcmitype/StillImage" /><dc:title></dc:title></cc:Work></rdf:RDF></metadata><defs
     id="defs6"><clipPath
       clipPathUnits="userSpaceOnUse"
       id="clipPath16"><path
         d="M 0,22 22,22 22,0 0,0 0,22 z"
         id="path18" /></clipPath></defs><sodipodi:namedview
     pagecolor="#ffffff"
     bordercolor="#666666"
     borderopacity="1"
     objecttolerance="10"
     gridtolerance="10"
     guidetolerance="10"
     inkscape:pageopacity="0"
     inkscape:pageshadow="2"
     inkscape:window-width="645"
     inkscape:window-height="480"
     id="namedview4"
     showgrid="false"
     inkscape:zoom="8.5818182"
     inkscape:cx="13.75"
     inkscape:cy="13.75"
     inkscape:window-x="0"
     inkscape:window-y="22"
     inkscape:window-maximized="0"
     inkscape:current-layer="g10" /><g
     id="g10"
     inkscape:groupmode="layer"
     inkscape:label="dizmoIcon-homeautomation-dark"
     transform="matrix(1.25,0,0,-1.25,0,27.5)"><g
       id="g12"><g
         id="g14"
         clip-path="url(#clipPath16)"><g
           id="g20"
           transform="translate(3.5762,0.9985)"><path
             d="m 0,0 14.848,0 c 0.011,0.001 0.023,0.003 0.035,0.003 0.764,0.054 2.542,0.418 2.542,2.652 l 0,14.692 c 0,2.234 -1.778,2.598 -2.542,2.652 -0.014,0.001 -0.028,0.002 -0.042,0.004 l -14.835,0 C -0.007,20.001 -0.021,20 -0.035,19.999 -0.8,19.945 -2.578,19.581 -2.578,17.347 l 0,-14.692 C -2.578,0.421 -0.8,0.057 -0.035,0.003 -0.023,0.003 -0.012,0.001 0,0 m 14.917,-0.997 -14.987,0 c -0.037,0 -0.073,0.004 -0.108,0.012 -1.656,0.14 -3.397,1.166 -3.397,3.64 l 0,14.692 c 0,2.472 1.738,3.498 3.392,3.64 C -0.146,20.996 -0.108,21 -0.07,21 l 14.987,0 c 0.04,0 0.079,-0.005 0.115,-0.013 1.655,-0.143 3.39,-1.17 3.39,-3.64 l 0,-14.692 c 0,-2.475 -1.742,-3.5 -3.398,-3.64 -0.034,-0.008 -0.07,-0.012 -0.107,-0.012"
             style="fill:#e5e5e5;fill-opacity:1;fill-rule:nonzero;stroke:none"
             id="path22" /></g><g
           id="g24"
           transform="translate(11.2137,14.334)"><path
             d="m 0,0 c -0.433,0 -0.851,-0.086 -1.244,-0.257 -0.343,-0.15 -0.5,-0.548 -0.351,-0.891 0.15,-0.345 0.554,-0.502 0.891,-0.352 0.221,0.096 0.458,0.145 0.703,0.145 C 0.971,-1.356 1.76,-2.146 1.76,-3.117 1.76,-3.384 1.701,-3.648 1.59,-3.879 1.427,-4.216 1.568,-4.621 1.905,-4.783 2,-4.83 2.1,-4.851 2.199,-4.851 c 0.252,0 0.494,0.14 0.61,0.383 0.2,0.413 0.306,0.881 0.306,1.351 C 3.115,-1.4 1.718,-0.003 0,0"
             style="fill:#e5e5e5;fill-opacity:1;fill-rule:nonzero;stroke:none"
             id="path26" /></g><g
           id="g28"
           transform="translate(11.8109,17.0113)"><path
             d="m 0,0 c -0.658,0 -1.299,-0.122 -1.904,-0.363 -0.347,-0.138 -0.517,-0.533 -0.378,-0.88 0.137,-0.348 0.534,-0.521 0.879,-0.379 0.445,0.177 0.917,0.267 1.402,0.267 2.115,-0.002 3.835,-1.72 3.835,-3.833 0,-0.519 -0.102,-1.021 -0.301,-1.491 -0.147,-0.344 0.014,-0.742 0.359,-0.889 0.087,-0.036 0.176,-0.054 0.265,-0.054 0.263,0 0.514,0.155 0.624,0.413 0.27,0.638 0.408,1.318 0.408,2.021 C 5.189,-2.329 2.862,-0.002 0,0"
             style="fill:#e5e5e5;fill-opacity:1;fill-rule:nonzero;stroke:none"
             id="path30" /></g><g
           id="g32"
           transform="translate(10.6955,11.7428)"><path
             d="m 0,0 c -0.217,0 -0.418,-0.065 -0.586,-0.176 -0.29,-0.191 -0.482,-0.519 -0.482,-0.892 0,-0.22 0.067,-0.425 0.181,-0.595 0.076,-0.112 0.171,-0.208 0.282,-0.285 0.172,-0.118 0.38,-0.188 0.605,-0.188 0.367,0 0.69,0.185 0.883,0.467 0.116,0.171 0.185,0.378 0.185,0.601 C 1.068,-0.478 0.59,0 0,0"
             style="fill:#e5e5e5;fill-opacity:1;fill-rule:nonzero;stroke:none"
             id="path34" /></g><g
           id="g36"
           transform="translate(10.0905,8.811)"><path
             d="m 0,0 0,-2.335 -3.603,0 0,3.603 2.341,0 c -0.06,0.188 -0.093,0.388 -0.093,0.596 0,0.321 0.079,0.624 0.216,0.892 l -3.208,0 c -0.411,0 -0.744,-0.333 -0.744,-0.744 l 0,-5.09 c 0,-0.411 0.333,-0.744 0.744,-0.744 l 5.091,0 c 0.411,0 0.744,0.333 0.744,0.744 l 0,3.194 C 1.222,-0.019 0.923,-0.097 0.605,-0.097 0.394,-0.097 0.191,-0.062 0,0"
             style="fill:#e5e5e5;fill-opacity:1;fill-rule:nonzero;stroke:none"
             id="path38" /></g><g
           id="g40"
           transform="translate(11.2137,14.334)"><path
             d="m 0,0 c -0.433,0 -0.851,-0.086 -1.244,-0.257 -0.343,-0.15 -0.5,-0.548 -0.351,-0.891 0.15,-0.345 0.554,-0.502 0.891,-0.352 0.221,0.096 0.458,0.145 0.703,0.145 C 0.971,-1.356 1.76,-2.146 1.76,-3.117 1.76,-3.384 1.701,-3.648 1.59,-3.879 1.427,-4.216 1.568,-4.621 1.905,-4.783 2,-4.83 2.1,-4.851 2.199,-4.851 c 0.252,0 0.494,0.14 0.61,0.383 0.2,0.413 0.306,0.881 0.306,1.351 C 3.115,-1.4 1.718,-0.003 0,0"
             style="fill:#e5e5e5;fill-opacity:1;fill-rule:nonzero;stroke:none"
             id="path42" /></g><g
           id="g44"
           transform="translate(11.8109,17.0113)"><path
             d="m 0,0 c -0.658,0 -1.299,-0.122 -1.904,-0.363 -0.347,-0.138 -0.517,-0.533 -0.378,-0.88 0.137,-0.348 0.534,-0.521 0.879,-0.379 0.445,0.177 0.917,0.267 1.402,0.267 2.115,-0.002 3.835,-1.72 3.835,-3.833 0,-0.519 -0.102,-1.021 -0.301,-1.491 -0.147,-0.344 0.014,-0.742 0.359,-0.889 0.087,-0.036 0.176,-0.054 0.265,-0.054 0.263,0 0.514,0.155 0.624,0.413 0.27,0.638 0.408,1.318 0.408,2.021 C 5.189,-2.329 2.862,-0.002 0,0"
             style="fill:#e5e5e5;fill-opacity:1;fill-rule:nonzero;stroke:none"
             id="path46" /></g><g
           id="g48"
           transform="translate(10.6955,11.7428)"><path
             d="m 0,0 c -0.217,0 -0.418,-0.065 -0.586,-0.176 -0.29,-0.191 -0.482,-0.519 -0.482,-0.892 0,-0.22 0.067,-0.425 0.181,-0.595 0.076,-0.112 0.171,-0.208 0.282,-0.285 0.172,-0.118 0.38,-0.188 0.605,-0.188 0.367,0 0.69,0.185 0.883,0.467 0.116,0.171 0.185,0.378 0.185,0.601 C 1.068,-0.478 0.59,0 0,0"
             style="fill:#e5e5e5;fill-opacity:1;fill-rule:nonzero;stroke:none"
             id="path50" /></g><g
           id="g52"
           transform="translate(10.0905,8.811)"><path
             d="m 0,0 0,-2.335 -3.603,0 0,3.603 2.341,0 c -0.06,0.188 -0.093,0.388 -0.093,0.596 0,0.321 0.079,0.624 0.216,0.892 l -3.208,0 c -0.411,0 -0.744,-0.333 -0.744,-0.744 l 0,-5.09 c 0,-0.411 0.333,-0.744 0.744,-0.744 l 5.091,0 c 0.411,0 0.744,0.333 0.744,0.744 l 0,3.194 C 1.222,-0.019 0.923,-0.097 0.605,-0.097 0.394,-0.097 0.191,-0.062 0,0"
             style="fill:#e5e5e5;fill-opacity:1;fill-rule:nonzero;stroke:none"
             id="path54" /></g></g></g></g></svg>